PathFileType	4	(X/Y/Z)	Patient4_TMGait_0pt5_01_left_06.trc.trc
DataRate	CameraRate	NumFrames	NumMarkers	Units	OrigDataRate	OrigDataStartFrame	OrigNumFrames
71.065989847716	71.065989847716	6	33	mm	71.065989847716	124	       141
Frame#	Time	L.ASIS			Sacral			L.Shoulder			Chest			R.Shoulder			Neck			R.ASIS			R.Thigh.Superior			R.Thigh.Lateral			R.Thigh.Inferior			R.Patella			L.Thigh.Superior			L.Thigh.Lateral			L.Thigh.Inferior			L.Patella			L.Shank.Superior			L.Shank.Lateral			L.Shank.Inferior			R.Shank.Superior			R.Shank.Lateral			R.Shank.Inferior			R.Heel			R.Midfoot.Superior			R.Midfoot.Lateral			R.Toe			L.Heel			L.Midfoot.Lateral			L.Midfoot.Superior			L.Toe			L.Elbow			L.Wrist			R.Elbow			R.Wrist			
		X1	Y1	Z1	X2	Y2	Z2	X3	Y3	Z3	X4	Y4	Z4	X5	Y5	Z5	X6	Y6	Z6	X7	Y7	Z7	X8	Y8	Z8	X9	Y9	Z9	X10	Y10	Z10	X11	Y11	Z11	X12	Y12	Z12	X13	Y13	Z13	X14	Y14	Z14	X15	Y15	Z15	X16	Y16	Z16	X17	Y17	Z17	X18	Y18	Z18	X19	Y19	Z19	X20	Y20	Z20	X21	Y21	Z21	X22	Y22	Z22	X23	Y23	Z23	X24	Y24	Z24	X25	Y25	Z25	X26	Y26	Z26	X27	Y27	Z27	X28	Y28	Z28	X29	Y29	Z29	X30	Y30	Z30	X31	Y31	Z31	X32	Y32	Z32	X33	Y33	Z33	

124	9.710785714286	665.978597601179	952.934254184244	352.466144589177	470.641603227899	1001.093567822615	531.209947486278	625.910316724371	1434.373854652181	354.562754734717	747.412269973765	1351.966504672075	495.863897364637	688.773551584296	1417.143200970383	683.921438416746	648.827143540639	1486.143300472289	507.391821253667	702.953532781787	927.373984686235	625.454393119198	692.418645749392	716.187086812626	596.967196289059	585.768072637071	626.045923216692	659.390086108613	641.714139107635	558.153014304445	577.767721676732	616.380567823120	471.373882524133	579.843334810879	740.302005989171	768.310045303392	378.922696395492	683.285686003380	636.174939849261	311.783332763089	787.434701360794	578.331949470330	369.696027669463	811.914657905664	513.230464130351	371.289158216683	799.727132454766	441.013864295435	363.640580942186	739.160203551695	307.874582302619	316.199563149112	829.765200237851	214.052832327439	373.695921729025	571.066992757639	390.761522171602	586.444427191860	480.728039401444	304.325650022106	649.796819983459	497.512778514742	204.095324435835	583.373554228282	331.285377805538	57.202959902527	556.105687026020	507.878596114251	98.290447331019	586.081560640969	416.879754816658	40.241064740725	624.978508254335	624.021824837657	36.923229854970	605.271197295058	747.396893194015	38.291748710032	412.620339527328	824.354374666441	40.528673544187	335.162441588840	896.320273413635	114.582793938618	357.773560739867	1029.808665706840	80.247919978352	338.175628596549	488.360234797475	1108.097184475724	247.599062489571	507.052803664148	845.723941229900	251.619883853815	808.309081862231	1099.228371358992	792.953449904920	1059.258402935160	1093.804521165086	740.471372551696	
125	9.724857142857	669.401645136080	951.948501260520	350.370131410834	472.538706233638	1000.445107465217	527.460571749374	627.861908720366	1433.569796288881	351.841686790285	748.783329183747	1351.477148870709	493.834292763225	688.961174829911	1416.600014436845	681.547726036374	649.869955704575	1485.473128812491	504.734464592617	704.253919438151	926.379892292811	623.541595078897	692.689841858000	714.946802805833	595.929954915547	584.784986407354	625.741206941076	657.780245448633	640.901560379323	557.043219584389	576.838983167959	614.797692704643	469.946148388867	578.979991604250	743.308680692615	767.001256975749	378.765640035275	686.266044884100	635.199339550443	311.335634488520	789.071615885555	577.034818168959	370.949069407521	812.156862155921	510.815961503741	372.892997314164	799.578819540925	438.170985850368	364.790097936153	737.229065412900	305.873680695107	317.163970308752	825.407155148224	210.595970946256	376.108305119770	568.235954992611	390.030428207206	585.673574178294	476.504341470049	305.053799585618	649.153948178330	492.216822052611	204.282839796975	583.215967979295	324.374004702435	58.682810532771	556.325213760564	501.377823751468	98.530445002169	586.275457943866	409.930309604322	40.816593038654	625.114704183518	617.087216662694	36.773794853794	605.319461399733	738.498783769806	37.341380704094	413.744335674806	816.490515723673	38.331779932612	337.135438143606	890.419289837317	109.832571700737	361.676105080199	1023.389431090664	71.627345979487	343.366907571344	492.177587354905	1106.869676637921	243.369954084401	515.668274646301	844.752736052069	246.960379891234	805.806914786736	1097.615837479287	792.183794735950	1057.145423887544	1082.611517226525	740.960522630580	
126	9.738928571429	672.980286129552	951.145710816426	348.181486853969	474.509333152147	999.962847070191	523.514146587702	630.073319911621	1432.856520805796	348.912205696965	750.336485297418	1351.112991343378	491.672731273153	689.286924759871	1416.307148794927	678.976861832092	651.126654751447	1484.957499982505	501.828977414713	705.638772292935	925.497550132518	621.479364193625	693.289005371812	713.843918245781	594.703542449513	584.271135730774	625.449505656716	655.972337117964	640.728459949185	555.983225045669	575.779464339497	613.998756356837	468.360051231036	578.120598768623	746.385792523942	765.778779571452	378.550183117363	689.223456300306	634.470172378855	310.686549729132	790.596406733048	575.840771534148	372.095812099282	812.155840064979	508.577402790354	374.368808697307	799.294413684112	435.634849504027	365.708875962572	735.456601878216	304.163035339365	317.693129684129	821.174544534054	207.562358786443	378.155958340024	565.949029610849	389.252762977623	584.823845999031	472.673637926399	305.940359982328	648.396474609650	487.199923703492	204.583585254276	583.025075919041	317.500758382334	60.526858605158	556.529585215615	495.040365473692	98.805444170538	586.468124217647	403.006497129042	41.571936047873	625.224315340006	610.163964795590	36.642248877018	605.344768925558	730.028301585747	36.611990582450	414.514917020537	808.946700278375	36.590262965186	338.673450153632	884.571908865756	105.739758934606	365.092845447380	1017.038297639988	64.119387293575	347.942861913140	496.525512341442	1105.646978796889	238.870785462809	524.711690360275	843.850272283730	242.071916421080	802.896911806234	1096.116312021981	791.535227240479	1054.263164721021	1070.457619369147	742.349555684713	
127	9.753000000000	676.638992539803	950.611284067650	345.903102529084	476.519464559177	999.696656347487	519.416524980283	632.527904902666	1432.293379099408	345.798006488359	752.052688712507	1350.920768935117	489.393239743943	689.755298381891	1416.315011355827	676.223105143522	652.592190424734	1484.650748399627	498.694536347536	707.083950961652	924.802416716578	619.275034758422	694.275142978146	712.960647236861	593.246200967061	584.380108058503	625.188688211936	653.976057493999	641.373910534091	555.024391583618	574.588622815345	614.206012550037	466.634155552640	577.315039380224	749.504022596442	764.756212601920	378.164837954959	692.108876409609	634.042270332228	309.807598647176	792.029952892205	574.828752698967	372.972989266240	811.981498965501	506.630986670718	375.584172350580	798.910324695970	433.508011587967	366.343935331785	733.884399762906	302.846510252737	317.738143185490	817.106454241748	205.068371852181	379.759626361187	564.398398378613	388.458111816424	583.928691283541	469.407367561039	307.061741442180	647.539480228174	482.596932696520	205.078885606014	582.824081810303	310.756622226981	62.950351306343	556.722960532053	488.952698167557	99.149048757169	586.674104229984	396.155165782470	42.637167672427	625.303732215516	603.238392649924	36.527619070774	605.335870385689	722.119476284489	36.146216735615	414.958026549273	801.797407256353	35.350665824081	339.748233773631	878.807849187031	102.450780507358	367.863192920612	1010.802746682751	57.985262600075	351.655590612208	501.447245101453	1104.483115479712	234.119745268573	534.172303346733	843.070881731715	236.973194671256	799.507555198086	1094.763313576572	790.901005879711	1050.368601924436	1057.423197994466	744.572376059302	
128	9.767071428571	680.310028908503	950.415496396136	343.531615964068	478.543503505377	999.681682070333	515.212019597275	635.198860620484	1431.936468594844	342.525758240044	753.905142466939	1350.942673114052	487.010902776428	690.355625183039	1416.656684854501	673.304334957171	654.247634764135	1484.597120678717	495.357782125082	708.570721159978	924.368002332399	616.937034623483	695.726964422232	712.377216642895	591.535835187126	585.285597614929	624.974070845719	651.816539974975	643.036797772696	554.218701759215	573.279316618047	615.654836771530	464.802063480474	576.619799055560	752.636997560465	764.023739597110	377.502042032010	694.879567717900	633.938886665708	308.689365165229	793.384751653507	574.046434348338	373.455019118746	811.699932766725	505.048354542541	376.453765803521	798.445042997008	431.835877005282	366.686658156687	732.494585038710	301.978815431229	317.303725004510	813.162180982492	203.154005977847	380.901575064297	563.804332080973	387.683679933784	583.034611239947	466.911153419486	308.502787383587	646.610226122183	478.572978232608	205.863324276033	582.645303018559	304.276019217196	66.209416820514	556.913476995515	483.218138873693	99.606619124791	586.913096879448	389.446894562524	44.175341868500	625.353656497350	596.295761632820	36.423696102938	605.285152798085	714.760653453790	35.941851534798	415.121624912902	794.999691526871	34.595451660459	340.378669229045	873.074916879408	100.008915662050	369.913960038421	1004.647589720706	53.313321870708	354.378917958645	506.962782751740	1103.441044024616	229.133755322956	544.061273871314	842.484294873310	231.680354583251	795.547146855672	1093.586903284366	790.182373103941	1045.185985165673	1043.626788326365	747.540475915103	
129	9.781142857143	683.940245843136	950.601339882727	341.061076402330	480.566354901877	999.930651323707	510.940845607728	638.051676398593	1431.830379186274	339.124035991207	755.861089074812	1351.209763394796	484.542707266018	691.060061417678	1417.341205819230	670.242493603421	656.060567837374	1484.823656027650	491.852361155085	710.087716119034	924.254250028866	614.475786992238	697.737932036042	712.161495176262	589.574354217560	587.166073384422	624.814909750938	649.531402906819	645.917415007441	553.613025959263	571.874620666694	618.570686073660	462.910149194559	576.085633384921	755.759139762685	763.627251457558	376.471734066183	697.487863733615	634.142423672732	307.344434440343	794.652127332855	573.499233608320	373.469053631580	811.355927781007	503.847988536061	376.948503790478	797.893228064208	430.606181948955	366.768219905528	731.219598657882	301.559053586137	316.447820612791	809.248019742296	201.789493010473	381.620931332730	564.396526237012	386.970208831654	582.192296848628	465.411257246879	310.347027196867	645.643225537603	475.313279072417	207.035286742081	582.524020210466	298.234857585342	70.578505365673	557.111380042639	477.949777152910	100.232708354631	587.206313316051	382.976378092217	46.371893332236	625.378941094963	589.324414278718	36.318064119812	605.191121288621	707.834818440862	35.961594366680	415.067513716601	788.434266398239	34.258060502769	340.623731766249	867.275490990537	98.365823027995	371.260667353879	998.488527039431	50.033025209288	356.113378671590	513.061121947431	1102.586003372011	223.927144164092	554.406878212981	842.170756875971	226.210807933905	790.916393477289	1092.609522459723	789.297075899448	1038.433934810145	1029.222718669473	751.150333065145	
